<svg width="56" height="56" viewBox="0 0 56 56" fill="none" xmlns="http://www.w3.org/2000/svg">
<g clip-path="url(#clip0_1860_6371)">
<path d="M41.9997 39.667V51.3337H37.3331V39.667C37.3331 29.2813 43.5024 20.3353 52.3761 16.2963L54.3081 20.543C50.6371 22.2127 47.5244 24.9039 45.3418 28.2951C43.1592 31.6863 41.9989 35.6341 41.9997 39.667ZM18.6664 39.667V51.3337H13.9997V39.667C14.0001 35.6345 12.8397 31.6872 10.6571 28.2964C8.47451 24.9057 5.36204 22.2148 1.69141 20.5453L3.62341 16.2963C8.10967 18.3368 11.9137 21.6256 14.5813 25.7698C17.2488 29.914 18.6669 34.7385 18.6664 39.667ZM27.9997 28.0003C24.9055 28.0003 21.9381 26.7712 19.7502 24.5832C17.5622 22.3953 16.3331 19.4279 16.3331 16.3337C16.3331 13.2395 17.5622 10.272 19.7502 8.08408C21.9381 5.89616 24.9055 4.66699 27.9997 4.66699C31.0939 4.66699 34.0614 5.89616 36.2493 8.08408C38.4372 10.272 39.6664 13.2395 39.6664 16.3337C39.6664 19.4279 38.4372 22.3953 36.2493 24.5832C34.0614 26.7712 31.0939 28.0003 27.9997 28.0003ZM27.9997 23.3337C28.919 23.3337 29.8292 23.1526 30.6785 22.8008C31.5278 22.449 32.2995 21.9334 32.9495 21.2834C33.5995 20.6334 34.1151 19.8617 34.4669 19.0124C34.8187 18.1632 34.9997 17.2529 34.9997 16.3337C34.9997 15.4144 34.8187 14.5042 34.4669 13.6549C34.1151 12.8056 33.5995 12.0339 32.9495 11.3839C32.2995 10.7339 31.5278 10.2183 30.6785 9.8665C29.8292 9.51472 28.919 9.33366 27.9997 9.33366C26.1432 9.33366 24.3627 10.0712 23.05 11.3839C21.7372 12.6967 20.9997 14.4771 20.9997 16.3337C20.9997 18.1902 21.7372 19.9707 23.05 21.2834C24.3627 22.5962 26.1432 23.3337 27.9997 23.3337Z" fill="#EF4823"/>
</g>
<defs>
<clipPath id="clip0_1860_6371">
<rect width="56" height="56" fill="white"/>
</clipPath>
</defs>
</svg>
